<svg width="16" height="16" viewBox="0 0 16 16" fill="none" xmlns="http://www.w3.org/2000/svg">
<path d="M11.3359 3.99967H14.6693V5.33301H13.3359V13.9997C13.3359 14.1765 13.2657 14.3461 13.1407 14.4711C13.0157 14.5961 12.8461 14.6663 12.6693 14.6663H3.33594C3.15913 14.6663 2.98956 14.5961 2.86453 14.4711C2.73951 14.3461 2.66927 14.1765 2.66927 13.9997V5.33301H1.33594V3.99967H4.66927V1.99967C4.66927 1.82286 4.73951 1.65329 4.86453 1.52827C4.98956 1.40325 5.15913 1.33301 5.33594 1.33301H10.6693C10.8461 1.33301 11.0157 1.40325 11.1407 1.52827C11.2657 1.65329 11.3359 1.82286 11.3359 1.99967V3.99967ZM12.0026 5.33301H4.0026V13.333H12.0026V5.33301ZM6.0026 7.33301H7.33594V11.333H6.0026V7.33301ZM8.66927 7.33301H10.0026V11.333H8.66927V7.33301ZM6.0026 2.66634V3.99967H10.0026V2.66634H6.0026Z" fill="#98A2B3"/>
</svg>
