<svg width="16" height="16" viewBox="0 0 16 16" fill="none" xmlns="http://www.w3.org/2000/svg">
<path d="M8.0026 1.33301C11.6846 1.33301 14.6693 4.31767 14.6693 7.99967C14.6693 11.6817 11.6846 14.6663 8.0026 14.6663C4.3206 14.6663 1.33594 11.6817 1.33594 7.99967H2.66927C2.66927 10.945 5.05727 13.333 8.0026 13.333C10.9479 13.333 13.3359 10.945 13.3359 7.99967C13.3359 5.05434 10.9479 2.66634 8.0026 2.66634C6.16927 2.66634 4.55194 3.59101 3.5926 4.99967H5.33594V6.33301H1.33594V2.33301H2.66927V3.99967C3.88527 2.37967 5.82194 1.33301 8.0026 1.33301ZM8.66927 4.66634V7.72301L10.8313 9.88501L9.88794 10.8283L7.33594 8.27501V4.66634H8.66927Z" fill="#98A2B3"/>
</svg>
