<svg width="12" height="13" viewBox="0 0 12 13" fill="none" xmlns="http://www.w3.org/2000/svg">
<mask id="mask0_1519_30065" style="mask-type:alpha" maskUnits="userSpaceOnUse" x="0" y="0" width="12" height="13">
<rect y="0.5" width="12" height="12" fill="#D9D9D9"/>
</mask>
<g mask="url(#mask0_1519_30065)">
<path d="M4.3 11.75L3.35 10.15L1.55 9.75L1.725 7.9L0.5 6.5L1.725 5.1L1.55 3.25L3.35 2.85L4.3 1.25L6 1.975L7.7 1.25L8.65 2.85L10.45 3.25L10.275 5.1L11.5 6.5L10.275 7.9L10.45 9.75L8.65 10.15L7.7 11.75L6 11.025L4.3 11.75ZM4.725 10.475L6 9.925L7.3 10.475L8 9.275L9.375 8.95L9.25 7.55L10.175 6.5L9.25 5.425L9.375 4.025L8 3.725L7.275 2.525L6 3.075L4.7 2.525L4 3.725L2.625 4.025L2.75 5.425L1.825 6.5L2.75 7.55L2.625 8.975L4 9.275L4.725 10.475ZM5.475 8.275L8.3 5.45L7.6 4.725L5.475 6.85L4.4 5.8L3.7 6.5L5.475 8.275Z" fill="#7937E3"/>
</g>
</svg>
