<svg width="18" height="18" viewBox="0 0 18 18" fill="none" xmlns="http://www.w3.org/2000/svg">
<g id="Customized/verified">
<mask id="mask0_1773_90811" style="mask-type:alpha" maskUnits="userSpaceOnUse" x="0" y="0" width="18" height="18">
<rect id="Bounding box" width="18" height="18" fill="#D9D9D9"/>
</mask>
<g mask="url(#mask0_1773_90811)">
<path id="verified" d="M6.45 16.875L5.025 14.475L2.325 13.875L2.5875 11.1L0.75 9L2.5875 6.9L2.325 4.125L5.025 3.525L6.45 1.125L9 2.2125L11.55 1.125L12.975 3.525L15.675 4.125L15.4125 6.9L17.25 9L15.4125 11.1L15.675 13.875L12.975 14.475L11.55 16.875L9 15.7875L6.45 16.875ZM7.0875 14.9625L9 14.1375L10.95 14.9625L12 13.1625L14.0625 12.675L13.875 10.575L15.2625 9L13.875 7.3875L14.0625 5.2875L12 4.8375L10.9125 3.0375L9 3.8625L7.05 3.0375L6 4.8375L3.9375 5.2875L4.125 7.3875L2.7375 9L4.125 10.575L3.9375 12.7125L6 13.1625L7.0875 14.9625ZM8.2125 11.6625L12.45 7.425L11.4 6.3375L8.2125 9.525L6.6 7.95L5.55 9L8.2125 11.6625Z" fill="#475467"/>
</g>
</g>
</svg>
