<svg width="12" height="12" viewBox="0 0 12 12" fill="none" xmlns="http://www.w3.org/2000/svg">
<mask id="mask0_18568_123315" style="mask-type:alpha" maskUnits="userSpaceOnUse" x="0" y="0" width="12" height="12">
<rect width="12" height="12" fill="#D9D9D9"/>
</mask>
<g mask="url(#mask0_18568_123315)">
<path d="M2.5 10.5C2.35833 10.5 2.23958 10.4521 2.14375 10.3562C2.04792 10.2604 2 10.1417 2 10V9.5C1.58333 9.5 1.22917 9.35417 0.9375 9.0625C0.645833 8.77083 0.5 8.41667 0.5 8V5.5C0.5 5.08333 0.645833 4.72917 0.9375 4.4375C1.22917 4.14583 1.58333 4 2 4V3C2 2.58333 2.14583 2.22917 2.4375 1.9375C2.72917 1.64583 3.08333 1.5 3.5 1.5H8.5C8.91667 1.5 9.27083 1.64583 9.5625 1.9375C9.85417 2.22917 10 2.58333 10 3V4C10.4167 4 10.7708 4.14583 11.0625 4.4375C11.3542 4.72917 11.5 5.08333 11.5 5.5V8C11.5 8.41667 11.3542 8.77083 11.0625 9.0625C10.7708 9.35417 10.4167 9.5 10 9.5V10C10 10.1417 9.95208 10.2604 9.85625 10.3562C9.76042 10.4521 9.64167 10.5 9.5 10.5C9.35833 10.5 9.23958 10.4521 9.14375 10.3562C9.04792 10.2604 9 10.1417 9 10V9.5H3V10C3 10.1417 2.95208 10.2604 2.85625 10.3562C2.76042 10.4521 2.64167 10.5 2.5 10.5ZM2 8.5H10C10.1417 8.5 10.2604 8.45208 10.3562 8.35625C10.4521 8.26042 10.5 8.14167 10.5 8V5.5C10.5 5.35833 10.4521 5.23958 10.3562 5.14375C10.2604 5.04792 10.1417 5 10 5C9.85833 5 9.73958 5.04792 9.64375 5.14375C9.54792 5.23958 9.5 5.35833 9.5 5.5V7.5H2.5V5.5C2.5 5.35833 2.45208 5.23958 2.35625 5.14375C2.26042 5.04792 2.14167 5 2 5C1.85833 5 1.73958 5.04792 1.64375 5.14375C1.54792 5.23958 1.5 5.35833 1.5 5.5V8C1.5 8.14167 1.54792 8.26042 1.64375 8.35625C1.73958 8.45208 1.85833 8.5 2 8.5ZM3.5 6.5H8.5V5.5C8.5 5.275 8.54583 5.07083 8.6375 4.8875C8.72917 4.70417 8.85 4.54167 9 4.4V3C9 2.85833 8.95208 2.73958 8.85625 2.64375C8.76042 2.54792 8.64167 2.5 8.5 2.5H3.5C3.35833 2.5 3.23958 2.54792 3.14375 2.64375C3.04792 2.73958 3 2.85833 3 3V4.4C3.15 4.54167 3.27083 4.70417 3.3625 4.8875C3.45417 5.07083 3.5 5.275 3.5 5.5V6.5Z" fill="#475467"/>
</g>
</svg>
