<svg width="18" height="18" viewBox="0 0 18 18" fill="none" xmlns="http://www.w3.org/2000/svg">
<path d="M3 1.30078C3.13198 1.30088 3.26159 1.33581 3.37575 1.40203L15.3787 8.35153C15.4924 8.41746 15.5867 8.51209 15.6523 8.62595C15.7179 8.7398 15.7524 8.86889 15.7524 9.00028C15.7524 9.13167 15.7179 9.26076 15.6523 9.37462C15.5867 9.48847 15.4924 9.5831 15.3787 9.64903L3.37575 16.5985C3.26177 16.6645 3.13243 16.6993 3.00073 16.6994C2.86904 16.6996 2.73963 16.665 2.62552 16.5993C2.51141 16.5335 2.41664 16.4389 2.35072 16.3249C2.2848 16.2108 2.25006 16.0815 2.25 15.9498V2.05078C2.25 1.85187 2.32902 1.6611 2.46967 1.52045C2.61032 1.3798 2.80109 1.30078 3 1.30078ZM9.219 10.0608L5.8455 13.4343L10.1198 10.96L9.21975 10.06L9.219 10.0608ZM3.75 4.58878V13.4088L8.16 8.99878L3.75 4.58878ZM11.463 7.81528L10.2795 9.00028L11.463 10.183L13.506 9.00028L11.4622 7.81603L11.463 7.81528ZM5.8455 4.56328L9.2205 7.93828L10.1198 7.03828L5.8455 4.56328Z" fill="#98A2B3"/>
</svg>
