<svg width="18" height="18" viewBox="0 0 18 18" fill="none" xmlns="http://www.w3.org/2000/svg">
<path d="M14.25 9.75001H3.75V15H14.25V9.75001ZM14.25 8.25001C14.25 6.85762 13.6969 5.52226 12.7123 4.5377C11.7277 3.55313 10.3924 3.00001 9 3.00001C7.60761 3.00001 6.27226 3.55313 5.28769 4.5377C4.30312 5.52226 3.75 6.85762 3.75 8.25001H14.25ZM4.7865 2.97601C5.98181 2.01831 7.46835 1.49757 9 1.50001C10.5938 1.50001 12.0585 2.05201 13.2135 2.97601L14.3032 1.88626L15.3638 2.94676L14.274 4.03651C15.2317 5.23181 15.7524 6.71836 15.75 8.25001V15.75C15.75 15.9489 15.671 16.1397 15.5303 16.2803C15.3897 16.421 15.1989 16.5 15 16.5H3C2.80109 16.5 2.61032 16.421 2.46967 16.2803C2.32902 16.1397 2.25 15.9489 2.25 15.75V8.25001C2.25 6.65626 2.802 5.19151 3.726 4.03651L2.63625 2.94751L3.69675 1.88701L4.7865 2.97676V2.97601ZM6.75 6.75001C6.55109 6.75001 6.36032 6.67099 6.21967 6.53034C6.07902 6.38969 6 6.19892 6 6.00001C6 5.8011 6.07902 5.61033 6.21967 5.46968C6.36032 5.32903 6.55109 5.25001 6.75 5.25001C6.94891 5.25001 7.13968 5.32903 7.28033 5.46968C7.42098 5.61033 7.5 5.8011 7.5 6.00001C7.5 6.19892 7.42098 6.38969 7.28033 6.53034C7.13968 6.67099 6.94891 6.75001 6.75 6.75001ZM11.25 6.75001C11.0511 6.75001 10.8603 6.67099 10.7197 6.53034C10.579 6.38969 10.5 6.19892 10.5 6.00001C10.5 5.8011 10.579 5.61033 10.7197 5.46968C10.8603 5.32903 11.0511 5.25001 11.25 5.25001C11.4489 5.25001 11.6397 5.32903 11.7803 5.46968C11.921 5.61033 12 5.8011 12 6.00001C12 6.19892 11.921 6.38969 11.7803 6.53034C11.6397 6.67099 11.4489 6.75001 11.25 6.75001Z" fill="#475467"/>
</svg>
