<svg width="18" height="18" viewBox="0 0 18 18" fill="none" xmlns="http://www.w3.org/2000/svg">
<path d="M9 1.5C13.1423 1.5 16.5 4.85775 16.5 9C16.5 13.1423 13.1423 16.5 9 16.5C4.85775 16.5 1.5 13.1423 1.5 9C1.5 4.85775 4.85775 1.5 9 1.5ZM9 3C7.4087 3 5.88258 3.63214 4.75736 4.75736C3.63214 5.88258 3 7.4087 3 9C3 10.5913 3.63214 12.1174 4.75736 13.2426C5.88258 14.3679 7.4087 15 9 15C10.5913 15 12.1174 14.3679 13.2426 13.2426C14.3679 12.1174 15 10.5913 15 9C15 7.4087 14.3679 5.88258 13.2426 4.75736C12.1174 3.63214 10.5913 3 9 3ZM6.61725 11.5072L6.02475 12.5347C5.98427 12.6051 5.93034 12.6667 5.86603 12.7162C5.80172 12.7657 5.72829 12.802 5.64994 12.8231C5.57159 12.8442 5.48985 12.8497 5.40939 12.8392C5.32893 12.8287 5.25132 12.8025 5.181 12.762C5.11068 12.7215 5.04902 12.6676 4.99954 12.6033C4.95006 12.539 4.91373 12.4655 4.89263 12.3872C4.87153 12.3088 4.86606 12.2271 4.87655 12.1466C4.88704 12.0662 4.91327 11.9886 4.95375 11.9183L5.3955 11.1562C5.8905 11.0017 6.29625 11.1203 6.61725 11.5072ZM9.9075 6.495L11.7248 9.6405H13.3305C13.4116 9.6402 13.4919 9.65594 13.5669 9.68681C13.6419 9.71768 13.71 9.76306 13.7674 9.82036C13.8247 9.87766 13.8702 9.94573 13.9012 10.0207C13.9321 10.0956 13.9479 10.1759 13.9478 10.257C13.948 10.3381 13.9323 10.4185 13.9014 10.4936C13.8705 10.5686 13.825 10.6367 13.7676 10.6941C13.7102 10.7515 13.6421 10.797 13.5671 10.8279C13.492 10.8588 13.4116 10.8745 13.3305 10.8742H12.438L13.0402 11.9175C13.1166 12.0591 13.1347 12.2248 13.0907 12.3795C13.0468 12.5342 12.9443 12.6657 12.805 12.7461C12.6657 12.8264 12.5005 12.8493 12.3446 12.8098C12.1887 12.7704 12.0543 12.6717 11.97 12.5347L9.69 8.58525C9.1725 7.69275 9.5415 6.798 9.9075 6.495ZM10.116 4.212C10.4122 4.3815 10.512 4.7595 10.3425 5.05575L7.6965 9.6375H9.61125C10.2308 9.6375 10.5788 10.3665 10.3095 10.8713H4.6995C4.61842 10.8714 4.5381 10.8556 4.46317 10.8247C4.38823 10.7937 4.32016 10.7482 4.26286 10.6909C4.20556 10.6335 4.16018 10.5654 4.12931 10.4904C4.09844 10.4154 4.0827 10.3351 4.083 10.254C4.0828 10.173 4.09861 10.0927 4.12953 10.0178C4.16044 9.94296 4.20584 9.87491 4.26313 9.81763C4.32041 9.76034 4.38846 9.71494 4.46334 9.68403C4.53823 9.65311 4.61848 9.6373 4.6995 9.6375H6.27225L8.286 6.14775L7.6575 5.05575C7.58119 4.91418 7.56308 4.74844 7.607 4.59373C7.65093 4.43902 7.75343 4.30752 7.89275 4.22717C8.03207 4.14682 8.19722 4.12395 8.35313 4.16341C8.50904 4.20287 8.64343 4.30155 8.72775 4.4385L8.997 4.91325L9.27225 4.4385C9.31273 4.36818 9.36668 4.30653 9.43101 4.25708C9.49534 4.20762 9.5688 4.17134 9.64716 4.15031C9.72553 4.12927 9.80727 4.12389 9.88772 4.13447C9.96817 4.14506 10.0457 4.17141 10.116 4.212Z" fill="#475467"/>
</svg>
