<svg width="24" height="24" viewBox="0 0 24 24" fill="none" xmlns="http://www.w3.org/2000/svg">
<path d="M16.5961 1.04001L22.9431 7.38601C23.0085 7.4513 23.0545 7.53344 23.0761 7.62331C23.0976 7.71318 23.0938 7.80726 23.0651 7.89511C23.0364 7.98296 22.984 8.06113 22.9135 8.12096C22.8431 8.18078 22.7574 8.21991 22.6661 8.23401L21.1921 8.46401L15.5361 2.80801L15.7481 1.32301C15.7613 1.23118 15.7997 1.14483 15.8592 1.07361C15.9187 1.0024 15.9967 0.949125 16.0847 0.919757C16.1727 0.89039 16.2672 0.886083 16.3575 0.90732C16.4478 0.928557 16.5304 0.974499 16.5961 1.04001ZM4.5951 20.15C8.3171 16.819 12.5901 15.822 17.2381 14.63L17.6841 10.612L13.3871 6.31501L9.3691 6.76101C8.1771 11.409 7.1801 15.681 3.8491 19.404L2.4541 18.01C5.2821 14.71 6.3441 11.057 7.7571 4.92901L14.1211 4.22201L19.7781 9.87901L19.0711 16.243C12.9431 17.657 9.2891 18.718 5.9901 21.546L4.5951 20.15ZM9.8791 14.12C9.68808 13.9355 9.53572 13.7148 9.4309 13.4708C9.32608 13.2268 9.27091 12.9644 9.2686 12.6988C9.26629 12.4333 9.3169 12.1699 9.41746 11.9241C9.51802 11.6783 9.66653 11.455 9.85431 11.2672C10.0421 11.0794 10.2654 10.9309 10.5112 10.8304C10.757 10.7298 11.0203 10.6792 11.2859 10.6815C11.5515 10.6838 11.8139 10.739 12.0579 10.8438C12.3019 10.9486 12.5226 11.101 12.7071 11.292C13.0664 11.6701 13.2638 12.1735 13.2572 12.6951C13.2506 13.2166 13.0406 13.7149 12.6719 14.0838C12.3031 14.4526 11.8049 14.6629 11.2833 14.6696C10.7618 14.6764 10.2583 14.4792 9.8801 14.12H9.8791Z" fill="#050400"/>
</svg>
